<svg version="1.1" id="Layer_1" xmlns="http://www.w3.org/2000/svg" xmlns:xlink="http://www.w3.org/1999/xlink" x="0px" y="0px"
	 width="100%" viewBox="0 0 2000 2000" enable-background="new 0 0 2000 2000" xml:space="preserve">
<path fill="#000D16" opacity="1.000000" stroke="none" 
	d="
M966.000000,1.000001 
	C989.687561,1.000000 1013.375183,1.000000 1037.735718,1.384125 
	C1094.075928,3.971657 1149.197266,10.466884 1203.773193,21.857395 
	C1274.125854,36.540646 1342.255493,58.099747 1407.839233,87.429726 
	C1536.313843,144.885574 1647.896973,225.811356 1742.408936,330.095642 
	C1827.367310,423.838623 1892.079956,530.059509 1936.710693,648.418518 
	C1972.525757,743.398132 1993.404053,841.611450 1999.198853,942.997192 
	C1999.580688,949.677307 2000.389771,956.332947 2001.000000,963.000000 
	C2001.000000,988.687561 2001.000000,1014.375183 2000.607910,1040.721680 
	C1999.852417,1047.530029 1999.468994,1053.678345 1999.128784,1059.828857 
	C1996.540283,1106.612183 1990.403809,1152.933472 1981.122681,1198.851440 
	C1961.163452,1297.598022 1927.231812,1391.281494 1878.924072,1479.683716 
	C1811.726318,1602.653809 1722.600342,1707.001587 1611.732788,1792.694336 
	C1519.984985,1863.608887 1418.870972,1916.934937 1308.530273,1952.570312 
	C1227.081665,1978.874756 1143.583496,1994.507080 1058.075928,1999.205444 
	C1050.706665,1999.610229 1043.358154,2000.392822 1036.000000,2001.000000 
	C1011.645752,2001.000000 987.291565,2001.000000 962.266052,2000.616089 
	C924.958862,1998.744385 888.496704,1995.328491 852.249878,1989.844604 
	C788.808472,1980.246460 726.747314,1964.991943 666.308777,1943.387939 
	C538.608582,1897.741211 424.725555,1829.143311 324.749451,1737.467407 
	C233.051788,1653.382324 159.652390,1555.530762 104.590958,1444.031372 
	C44.640499,1322.631348 10.714855,1194.253296 2.807000,1059.039917 
	C2.396178,1052.015381 1.610926,1045.012817 0.999999,1038.000000 
	C1.000000,1012.979126 1.000000,987.958191 1.381065,962.260864 
	C2.783789,946.131592 3.628435,930.664734 4.859342,915.228638 
	C9.034674,862.868225 17.783133,811.234924 30.441786,760.286804 
	C56.411865,655.763245 98.063225,557.881409 155.681122,466.859772 
	C228.334824,352.085358 320.597107,256.058594 432.159668,178.614670 
	C519.546509,117.952904 614.326538,72.567940 716.332214,42.424351 
	C790.809143,20.415758 866.773315,6.688341 944.423401,2.763003 
	C951.626892,2.398854 958.808350,1.598055 966.000000,1.000001 
M589.796814,1190.492554 
	C589.796814,1194.904785 589.796814,1199.317017 589.796814,1203.742676 
	C659.846985,1203.742676 729.103943,1203.742676 798.587769,1203.742676 
	C798.587769,922.461670 798.587769,641.438110 798.587769,360.315063 
	C728.900757,360.315063 659.515259,360.315063 589.796692,360.315063 
	C589.796692,636.938843 589.796692,913.217285 589.796814,1190.492554 
M1186.649292,1523.499756 
	C1186.649292,1592.569946 1186.649292,1661.640259 1186.649292,1730.703857 
	C1256.624634,1730.703857 1326.017700,1730.703857 1395.510254,1730.703857 
	C1395.510254,1458.374146 1395.510254,1186.340942 1395.510254,914.070129 
	C1325.874390,914.070129 1256.477905,914.070129 1186.649292,914.070129 
	C1186.649292,1117.018677 1186.649292,1319.759277 1186.649292,1523.499756 
M887.998352,1567.500000 
	C887.998352,1671.576904 887.998352,1775.653809 887.998352,1879.763672 
	C957.933960,1879.763672 1027.334961,1879.763672 1096.895264,1879.763672 
	C1096.895264,1611.323364 1096.895264,1343.119141 1096.895264,1074.763672 
	C1027.209351,1074.763672 957.699524,1074.763672 887.998352,1074.763672 
	C887.998352,1238.925049 887.998352,1402.712524 887.998352,1567.500000 
M1097.067261,930.500000 
	C1097.067261,687.420532 1097.067261,444.341095 1097.067261,201.239380 
	C1027.042236,201.239380 957.773071,201.239380 888.277222,201.239380 
	C888.277222,458.703949 888.277222,715.929626 888.277222,973.313477 
	C957.950195,973.313477 1027.344482,973.313477 1097.067383,973.313477 
	C1097.067383,959.138855 1097.067383,945.319458 1097.067261,930.500000 
M291.000488,1288.500000 
	C291.000488,1383.252686 291.000488,1478.005371 291.000488,1572.810913 
	C360.936798,1572.810913 430.345306,1572.810913 499.943207,1572.810913 
	C499.943207,1382.211914 499.943207,1191.834717 499.943207,1001.305176 
	C430.251007,1001.305176 360.722534,1001.305176 291.000488,1001.305176 
	C291.000488,1096.906494 291.000488,1192.203247 291.000488,1288.500000 
M1694.039795,752.500000 
	C1694.039795,678.755676 1694.039795,605.011414 1694.039795,531.408203 
	C1623.921753,531.408203 1554.538696,531.408203 1485.262573,531.408203 
	C1485.262573,721.071899 1485.262573,910.327759 1485.262573,1099.705566 
	C1554.920166,1099.705566 1624.302246,1099.705566 1694.039795,1099.705566 
	C1694.039795,984.087830 1694.039795,868.793884 1694.039795,752.500000 
M1186.701050,539.500000 
	C1186.701050,620.066895 1186.701050,700.633789 1186.701050,781.175781 
	C1256.799561,781.175781 1326.141113,781.175781 1395.495361,781.175781 
	C1395.495361,640.610779 1395.495361,500.542908 1395.495361,360.297394 
	C1325.835205,360.297394 1256.459595,360.297394 1186.700806,360.297394 
	C1186.700806,419.916809 1186.700806,479.208405 1186.701050,539.500000 
M798.881042,1491.500000 
	C798.881042,1439.927734 798.881042,1388.355469 798.881042,1336.710815 
	C728.850891,1336.710815 659.467773,1336.710815 589.982178,1336.710815 
	C589.982178,1473.262695 589.982178,1609.492188 589.982178,1745.774170 
	C659.693176,1745.774170 729.192139,1745.774170 798.881042,1745.774170 
	C798.881042,1661.087280 798.881042,1576.793701 798.881042,1491.500000 
M473.500000,531.000610 
	C412.751312,531.000610 352.002594,531.000610 291.245392,531.000610 
	C291.245392,654.653625 291.245392,777.580017 291.245392,900.721741 
	C360.881958,900.721741 430.273773,900.721741 499.771729,900.721741 
	C499.771729,777.407532 499.771729,654.371338 499.771729,531.000610 
	C491.115570,531.000610 482.807770,531.000610 473.500000,531.000610 
M1485.046753,1230.717407 
	C1485.026489,1344.181763 1485.005737,1457.645996 1485.002686,1571.110352 
	C1485.002686,1571.714478 1485.253418,1572.318726 1485.347046,1572.741455 
	C1555.022705,1572.741455 1624.416992,1572.741455 1693.798828,1572.741455 
	C1693.798828,1458.398926 1693.798828,1344.348145 1693.798828,1230.033447 
	C1624.281616,1230.033447 1555.006836,1230.033447 1485.046753,1230.717407 
z"/>
<path fill="#FFFFFF" opacity="1.000000" stroke="none" 
	d="
M1036.468628,2001.000000 
	C1043.358154,2000.392822 1050.706665,1999.610229 1058.075928,1999.205444 
	C1143.583496,1994.507080 1227.081665,1978.874756 1308.530273,1952.570312 
	C1418.870972,1916.934937 1519.984985,1863.608887 1611.732788,1792.694336 
	C1722.600342,1707.001587 1811.726318,1602.653809 1878.924072,1479.683716 
	C1927.231812,1391.281494 1961.163452,1297.598022 1981.122681,1198.851440 
	C1990.403809,1152.933472 1996.540283,1106.612183 1999.128784,1059.828857 
	C1999.468994,1053.678345 1999.852417,1047.530029 2000.607910,1041.190430 
	C2001.000000,1360.927246 2001.000000,1680.854614 2001.000000,2001.000000 
	C1679.645752,2001.000000 1358.291504,2001.000000 1036.468628,2001.000000 
z"/>
<path fill="#FFFFFF" opacity="1.000000" stroke="none" 
	d="
M2001.000000,962.531372 
	C2000.389771,956.332947 1999.580688,949.677307 1999.198853,942.997192 
	C1993.404053,841.611450 1972.525757,743.398132 1936.710693,648.418518 
	C1892.079956,530.059509 1827.367310,423.838623 1742.408936,330.095642 
	C1647.896973,225.811356 1536.313843,144.885574 1407.839233,87.429726 
	C1342.255493,58.099747 1274.125854,36.540646 1203.773193,21.857395 
	C1149.197266,10.466884 1094.075928,3.971657 1038.204346,1.384125 
	C1358.927124,1.000000 1679.854126,1.000000 2001.000000,1.000000 
	C2001.000000,321.354187 2001.000000,641.708435 2001.000000,962.531372 
z"/>
<path fill="#FFFFFF" opacity="1.000000" stroke="none" 
	d="
M0.999999,1038.468628 
	C1.610926,1045.012817 2.396178,1052.015381 2.807000,1059.039917 
	C10.714855,1194.253296 44.640499,1322.631348 104.590958,1444.031372 
	C159.652390,1555.530762 233.051788,1653.382324 324.749451,1737.467407 
	C424.725555,1829.143311 538.608582,1897.741211 666.308777,1943.387939 
	C726.747314,1964.991943 788.808472,1980.246460 852.249878,1989.844604 
	C888.496704,1995.328491 924.958862,1998.744385 961.797363,2000.616089 
	C641.739502,2001.000000 321.478973,2001.000000 1.000000,2001.000000 
	C1.000000,1680.312500 1.000000,1359.624878 0.999999,1038.468628 
z"/>
<path fill="#FFFFFF" opacity="1.000000" stroke="none" 
	d="
M965.531372,1.000001 
	C958.808350,1.598055 951.626892,2.398854 944.423401,2.763003 
	C866.773315,6.688341 790.809143,20.415758 716.332214,42.424351 
	C614.326538,72.567940 519.546509,117.952904 432.159668,178.614670 
	C320.597107,256.058594 228.334824,352.085358 155.681122,466.859772 
	C98.063225,557.881409 56.411865,655.763245 30.441786,760.286804 
	C17.783133,811.234924 9.034674,862.868225 4.859342,915.228638 
	C3.628435,930.664734 2.783789,946.131592 1.381065,961.792175 
	C1.000000,641.739441 1.000000,321.478821 1.000000,1.000000 
	C322.354187,1.000000 643.708435,1.000000 965.531372,1.000001 
z"/>
<path fill="#69B39D" opacity="1.000000" stroke="none" 
	d="
M589.796753,1189.994141 
	C589.796692,913.217285 589.796692,636.938843 589.796692,360.315063 
	C659.515259,360.315063 728.900757,360.315063 798.587769,360.315063 
	C798.587769,641.438110 798.587769,922.461670 798.587769,1203.742676 
	C729.103943,1203.742676 659.846985,1203.742676 589.796814,1203.742676 
	C589.796814,1199.317017 589.796814,1194.904785 589.796753,1189.994141 
z"/>
<path fill="#FFFFFF" opacity="1.000000" stroke="none" 
	d="
M1186.649292,1522.999756 
	C1186.649292,1319.759277 1186.649292,1117.018677 1186.649292,914.070129 
	C1256.477905,914.070129 1325.874390,914.070129 1395.510254,914.070129 
	C1395.510254,1186.340942 1395.510254,1458.374146 1395.510254,1730.703857 
	C1326.017700,1730.703857 1256.624634,1730.703857 1186.649292,1730.703857 
	C1186.649292,1661.640259 1186.649292,1592.569946 1186.649292,1522.999756 
z"/>
<path fill="#FFFFFF" opacity="1.000000" stroke="none" 
	d="
M887.998352,1567.000000 
	C887.998352,1402.712524 887.998352,1238.925049 887.998352,1074.763672 
	C957.699524,1074.763672 1027.209351,1074.763672 1096.895264,1074.763672 
	C1096.895264,1343.119141 1096.895264,1611.323364 1096.895264,1879.763672 
	C1027.334961,1879.763672 957.933960,1879.763672 887.998352,1879.763672 
	C887.998352,1775.653809 887.998352,1671.576904 887.998352,1567.000000 
z"/>
<path fill="#69B39D" opacity="1.000000" stroke="none" 
	d="
M1097.067383,931.000000 
	C1097.067383,945.319458 1097.067383,959.138855 1097.067383,973.313477 
	C1027.344482,973.313477 957.950195,973.313477 888.277222,973.313477 
	C888.277222,715.929626 888.277222,458.703949 888.277222,201.239380 
	C957.773071,201.239380 1027.042236,201.239380 1097.067261,201.239380 
	C1097.067261,444.341095 1097.067261,687.420532 1097.067383,931.000000 
z"/>
<path fill="#FFFFFF" opacity="1.000000" stroke="none" 
	d="
M291.000488,1288.000000 
	C291.000488,1192.203247 291.000488,1096.906494 291.000488,1001.305176 
	C360.722534,1001.305176 430.251007,1001.305176 499.943207,1001.305176 
	C499.943207,1191.834717 499.943207,1382.211914 499.943207,1572.810913 
	C430.345306,1572.810913 360.936798,1572.810913 291.000488,1572.810913 
	C291.000488,1478.005371 291.000488,1383.252686 291.000488,1288.000000 
z"/>
<path fill="#69B39D" opacity="1.000000" stroke="none" 
	d="
M1694.039795,753.000000 
	C1694.039795,868.793884 1694.039795,984.087830 1694.039795,1099.705566 
	C1624.302246,1099.705566 1554.920166,1099.705566 1485.262573,1099.705566 
	C1485.262573,910.327759 1485.262573,721.071899 1485.262573,531.408203 
	C1554.538696,531.408203 1623.921753,531.408203 1694.039795,531.408203 
	C1694.039795,605.011414 1694.039795,678.755676 1694.039795,753.000000 
z"/>
<path fill="#69B39D" opacity="1.000000" stroke="none" 
	d="
M1186.700928,539.000000 
	C1186.700806,479.208405 1186.700806,419.916809 1186.700806,360.297394 
	C1256.459595,360.297394 1325.835205,360.297394 1395.495361,360.297394 
	C1395.495361,500.542908 1395.495361,640.610779 1395.495361,781.175781 
	C1326.141113,781.175781 1256.799561,781.175781 1186.701050,781.175781 
	C1186.701050,700.633789 1186.701050,620.066895 1186.700928,539.000000 
z"/>
<path fill="#FEFFFF" opacity="1.000000" stroke="none" 
	d="
M798.881042,1492.000000 
	C798.881042,1576.793701 798.881042,1661.087280 798.881042,1745.774170 
	C729.192139,1745.774170 659.693176,1745.774170 589.982178,1745.774170 
	C589.982178,1609.492188 589.982178,1473.262695 589.982178,1336.710815 
	C659.467773,1336.710815 728.850891,1336.710815 798.881042,1336.710815 
	C798.881042,1388.355469 798.881042,1439.927734 798.881042,1492.000000 
z"/>
<path fill="#69B39D" opacity="1.000000" stroke="none" 
	d="
M474.000000,531.000610 
	C482.807770,531.000610 491.115570,531.000610 499.771729,531.000610 
	C499.771729,654.371338 499.771729,777.407532 499.771729,900.721741 
	C430.273773,900.721741 360.881958,900.721741 291.245392,900.721741 
	C291.245392,777.580017 291.245392,654.653625 291.245392,531.000610 
	C352.002594,531.000610 412.751312,531.000610 474.000000,531.000610 
z"/>
<path fill="#FFFFFF" opacity="1.000000" stroke="none" 
	d="
M1485.389404,1230.375488 
	C1555.006836,1230.033447 1624.281616,1230.033447 1693.798828,1230.033447 
	C1693.798828,1344.348145 1693.798828,1458.398926 1693.798828,1572.741455 
	C1624.416992,1572.741455 1555.022705,1572.741455 1485.347046,1572.741455 
	C1485.253418,1572.318726 1485.002686,1571.714478 1485.002686,1571.110352 
	C1485.005737,1457.645996 1485.026489,1344.181763 1485.389404,1230.375488 
z"/>
</svg>